<svg xmlns="http://www.w3.org/2000/svg" viewBox="0 0 322.13 309.67"><defs><style>.cls-1{fill:#fff;}</style></defs><g id="Ebene_2" data-name="Ebene 2"><g id="Ebene_1-2" data-name="Ebene 1"><path class="cls-1" d="M262.67,309.67C240,297.82,217.25,288.6,197.56,275c-24.36-16.83-45.23-16.86-69.57-.13-19.2,13.19-41.27,22.22-62.09,33.06-.65.34-1.49.3-3.79.71,3.28-19.88,6.41-39.24,9.66-58.59,2.46-14.66,5.6-29.24,7.28-44,.51-4.5-1.46-10.76-4.6-13.94C53,170.38,30.91,149.26,9.07,127.9c-2.73-2.66-5.24-5.54-9.07-9.62,27.5-4.06,53.22-9.63,79.17-11.17,24.12-1.43,38.63-10.33,47.45-33.69C136,48.68,149.66,25.59,162.34,0c4.38,8.53,8.15,15.65,11.72,22.86,11.11,22.42,22.67,44.66,33,67.45,4.1,9.07,9.75,12.58,19.16,13.77,29.5,3.72,58.91,8.18,88.34,12.43a71.57,71.57,0,0,1,7.61,1.81c-12,12.87-23.95,26.19-36.41,39-10.91,11.24-22,22.36-33.69,32.75-6.5,5.76-7.43,11.61-5.92,19.65,5.42,28.83,10.25,57.77,15.22,86.69C262,300.23,262.12,304.09,262.67,309.67Z"/></g></g></svg>