<svg xmlns="http://www.w3.org/2000/svg" viewBox="0 0 288.98 330.98"><defs><style>.cls-1{fill:#fff;}</style></defs><g id="Ebene_2" data-name="Ebene 2"><g id="Ebene_1-2" data-name="Ebene 1"><path class="cls-1" d="M77,330.84c28.22.82,62.23-1.67,92.44-10.93C234.39,300,273.35,256.83,285.53,189.8c3.84-21.13,4.23-42.42,2.36-63.73-.94-10.69-2.67-21.31-4-32C233.9,189.73,162.09,265.74,77,330.84m-21.07-9c.84-.57,1.81-1.18,2.73-1.85A759.34,759.34,0,0,0,136.2,255.2c46.61-44.48,87.29-93.69,118.86-150.09,4.49-8,8.64-16.22,13.35-25.08-1.69.57-2.48.81-3.25,1.1a835.4,835.4,0,0,1-97.64,30.1c-24.63,5.91-47,16.07-65.83,33.18C74.88,168.73,58.42,198.83,56.27,235c-1.71,28.75-.34,57.68-.34,86.82"/><path class="cls-1" d="M141.26,0c3.88,5.28,7.74,10.57,11.63,15.84,14.89,20.18,27.45,41.67,36.54,65.1.5,1.28.93,2.57,1.52,4.2-11.24,2.93-22.16,5.74-33,8.63C103.4,108.2,65.65,141.5,45.3,194.17A143.49,143.49,0,0,0,36,243.74c-.27,16.48-.09,33-.1,49.43,0,1.18,0,2.35,0,3.77-.45-.28-.79-.38-.89-.59-8.27-17.26-17.24-34.23-24.64-51.85C-12.33,190.41,3.14,125.92,47.82,87.81,77.66,62.35,107,36.36,133.8,7.69c2.34-2.5,4.55-5.13,6.82-7.69Z"/><path class="cls-1" d="M55.93,321.83c0-29.14-1.37-58.07.34-86.82,2.15-36.18,18.61-66.28,45.42-90.6,18.86-17.11,41.2-27.27,65.83-33.18a835.4,835.4,0,0,0,97.64-30.1c.77-.29,1.56-.53,3.25-1.1-4.71,8.86-8.86,17.07-13.35,25.08-31.57,56.4-72.25,105.61-118.86,150.09A759.34,759.34,0,0,1,58.66,320c-.92.67-1.89,1.28-2.73,1.85"/><path class="cls-1" d="M77,330.83c85.09-65.09,156.9-141.11,206.85-236.72,1.37,10.65,3.1,21.27,4,32,1.88,21.32,1.49,42.6-2.35,63.72-12.18,67-51.14,110.21-116.09,130.12-30.22,9.25-64.22,11.75-92.44,10.92"/></g></g></svg>