<svg xmlns="http://www.w3.org/2000/svg" viewBox="0 0 774.34 357.43"><defs><style>.cls-1{fill:#fff;}</style></defs><g id="Ebene_2" data-name="Ebene 2"><g id="Ebene_1-2" data-name="Ebene 1"><path class="cls-1" d="M430.26,121.21c-20.63,0-36.49-14.92-36.49-37.44s15.86-37.45,36.49-37.45,36.48,14.92,36.48,37.45-15.86,37.44-36.48,37.44m125.33,46.33a30.15,30.15,0,1,0-30.14-30.15,30.34,30.34,0,0,0,30.14,30.15m-125.33,0c46.64,0,84.08-36.5,84.08-83.77S476.9,0,430.26,0s-84.09,36.49-84.09,83.77,37.44,83.77,84.09,83.77m-163.73,0c31.1,0,58.06-16.19,71.71-40.94l-41.56-23.8c-5.08,11.11-16.82,17.77-30.79,17.77-20.62,0-35.85-14.91-35.85-36.8S245.27,47,265.89,47c14,0,25.39,6.66,30.79,17.77l41.56-24.11C324.59,16.18,297.31,0,266.53,0c-48.23,0-84.08,36.49-84.08,83.77s35.85,83.77,84.08,83.77M49.5,67.27C53.94,51.09,66,42.2,84.08,42.2c14.28,0,28.56,6.67,33.64,25.07Zm1,35.53H163.09a92.14,92.14,0,0,0,1.9-19C165,35.85,130.73,0,84.4,0,34.27,0,0,36.49,0,83.77s33.63,83.77,87.89,83.77c30.14,0,53.63-11.11,69.17-32.69L119,113c-6.34,7-17.44,12.05-30.46,12.05-17.44,0-32-5.7-38.07-22.21"/><path class="cls-1" d="M438.65,189.89c-22.53,0-37.13,8.25-46,20.94-8.89-13.33-22.85-20.94-41.57-20.94-21.26,0-35.22,8.25-42.52,19v-14.6H261V353h47.59V263.5c0-18.72,8.88-29.82,24.75-29.82,15.23,0,22.85,10.15,22.85,26V353h47.59V263.5c0-18.72,8.89-29.82,24.75-29.82,15.23,0,22.85,10.15,22.85,26V353h47.6V255.57c0-39.66-23.8-65.68-60.29-65.68m93,163.1h47.59V194.34H531.62Z"/><path class="cls-1" d="M726.75,273.66c0,22.53-15.86,37.44-36.49,37.44s-36.49-14.91-36.49-37.44Zm-36.49,83.77c46.64,0,84.08-36.5,84.08-83.77s-37.44-83.77-84.08-83.77-84.08,36.49-84.08,83.77,37.44,83.77,84.08,83.77"/></g></g></svg>